<svg width="1920" height="64" viewBox="0 0 1920 64" fill="none" xmlns="http://www.w3.org/2000/svg">
<g clip-path="url(#clip0_3795_13124)">
<rect width="1920" height="64" fill="white"/>
<g clip-path="url(#clip1_3795_13124)">
<rect width="2826" height="1766.25" transform="translate(-900 -427)" fill="#21467B"/>
<mask id="mask0_3795_13124" style="mask-type:alpha" maskUnits="userSpaceOnUse" x="-900" y="-429" width="2826" height="1767">
<rect x="-900" y="-428.962" width="2826" height="1766.25" fill="#21467B"/>
</mask>
<g mask="url(#mask0_3795_13124)">
<g opacity="0.6" filter="url(#filter0_f_3795_13124)">
<ellipse cx="404.081" cy="530.7" rx="1135.31" ry="757.525" fill="#308FFF" fill-opacity="0.9"/>
</g>
<mask id="mask1_3795_13124" style="mask-type:alpha" maskUnits="userSpaceOnUse" x="-593" y="-1742" width="3717" height="4194">
<path d="M3123.99 -895.357L797.197 -1741.7L-443.214 269.122L-592.283 915.384L484.489 2289.95L1581.12 2451.91L2477.83 670.122L3123.99 -895.357Z" fill="url(#paint0_linear_3795_13124)"/>
</mask>
<g mask="url(#mask1_3795_13124)">
<mask id="mask2_3795_13124" style="mask-type:alpha" maskUnits="userSpaceOnUse" x="-293" y="-1898" width="4000" height="4440">
<path d="M2017.63 2541.71C993.331 2043.09 -239.946 1299.34 -292.628 1277.82L1322.3 -1897.21L3706.69 -961.296L2017.63 2541.71Z" fill="url(#paint1_linear_3795_13124)"/>
</mask>
<g mask="url(#mask2_3795_13124)">
<path d="M700.029 303.564C875.421 -44.945 1389.97 -159.869 1719.08 -0.205512C2048.18 159.458 2409.07 510.065 2220.89 883.985C2127.64 1069.28 2234.41 1401 1959.73 1541.63C1680.12 1684.8 1256.91 1416.08 1090.89 1335.54C761.788 1175.87 524.638 652.073 700.029 303.564Z" fill="#3DABB8"/>
<g filter="url(#filter1_f_3795_13124)">
<path d="M726.116 321.413C914.22 -52.3549 1333.84 -181.586 1589.34 -57.6286C1844.84 66.3288 2109.18 370.02 1921.07 743.788C1827.86 929.008 1892.12 1239.99 1654.14 1398.32C1411.88 1559.49 1089.04 1339.49 960.152 1276.96C704.648 1153 538.013 695.181 726.116 321.413Z" fill="#3DABB8"/>
</g>
<g filter="url(#filter2_f_3795_13124)">
<path d="M731.811 310.101C942.638 -108.82 1445.43 -237.903 1760.92 -84.8424C2076.42 68.2185 2410.9 427.139 2200.07 846.06C2095.6 1053.66 2217.24 1426.27 1936.01 1596.69C1649.72 1770.17 1221.47 1491.38 1062.32 1414.17C746.829 1261.11 520.984 729.022 731.811 310.101Z" fill="#3DABB8"/>
</g>
<g filter="url(#filter3_f_3795_13124)">
<path d="M859.275 311.583C1205.12 -164.129 1873.08 -373.098 2281.26 -175.069C2689.44 22.9595 2998.59 499.554 2745.75 1001.97C2620.45 1250.94 2904.25 1786.82 2552.12 1984C2193.67 2184.73 1463.17 1793.22 1257.27 1693.32C849.083 1495.29 458.634 862.669 859.275 311.583Z" fill="#3DABB8"/>
</g>
<g filter="url(#filter4_f_3795_13124)">
<path d="M1030.91 226.296C1303.16 -314.671 2082.88 -563.88 2481.96 -370.266C2881.04 -176.652 3170.22 315.316 2897.97 856.282C2763.06 1124.36 2751.56 1523.74 2392.54 1745.82C2027.06 1971.89 1120 1728.53 918.686 1630.86C519.603 1437.25 758.659 767.262 1030.91 226.296Z" fill="#3DABB8"/>
</g>
<g filter="url(#filter5_f_3795_13124)">
<path d="M1315.61 54.3955C1596.95 -504.644 2377.05 -724.957 2785.24 -526.928C3193.42 -328.899 3487.68 177.284 3206.34 736.323C3066.92 1013.35 2306.53 1159.09 1937.63 1389.61C1562.09 1624.28 1043.72 1278 837.814 1178.11C429.632 980.078 1034.27 613.435 1315.61 54.3955Z" fill="#3DABB8"/>
</g>
</g>
</g>
<mask id="mask3_3795_13124" style="mask-type:alpha" maskUnits="userSpaceOnUse" x="44" y="-974" width="2330" height="2978">
<path d="M798.812 -973.158C1475.79 -755.673 2339.34 -478.099 2373.86 -469.922L1619.88 2003.73L44.83 1500.49L798.812 -973.158Z" fill="url(#paint2_linear_3795_13124)"/>
</mask>
<g mask="url(#mask3_3795_13124)">
<path d="M1746.33 593.544C1661.29 872.54 1347.22 1029.61 1129.76 960.126C912.287 890.644 661.322 686.522 752.562 387.184C797.775 238.847 707.301 12.2917 869.314 -129.344C1034.24 -273.524 1318.4 -137.965 1428.11 -102.915C1645.58 -33.4323 1831.37 314.548 1746.33 593.544Z" fill="#AADDE3"/>
<g filter="url(#filter6_f_3795_13124)">
<path d="M1728.73 584.248C1637.52 883.464 1363.75 1030.99 1176.82 971.262C989.889 911.537 778.988 720.267 870.191 421.051C915.386 272.775 840.443 51.2618 987.226 -95.1611C1136.65 -244.214 1379.16 -121.98 1473.46 -91.852C1660.39 -32.1272 1819.93 285.031 1728.73 584.248Z" fill="#AADDE3"/>
</g>
<g filter="url(#filter7_f_3795_13124)">
<path d="M1725.96 593.312C1623.74 928.675 1293.52 1086.55 1063.06 1012.92C832.601 939.287 568.729 716.126 670.95 380.763C721.605 214.574 601.59 -45.2063 776.537 -205.985C954.627 -369.651 1274.51 -217.294 1390.77 -180.149C1621.23 -106.516 1828.18 257.949 1725.96 593.312Z" fill="#AADDE3"/>
</g>
<g filter="url(#filter8_f_3795_13124)">
<path d="M1686.87 623.296C1504.13 1019.29 1100.69 1266.76 830.962 1180.58C561.237 1094.4 333.707 791.081 456.3 388.88C517.051 189.57 301.176 -160.572 507.67 -354.454C717.874 -551.82 1069.04 -379.472 1205.1 -335.999C1474.83 -249.821 1898.56 164.563 1686.87 623.296Z" fill="#AADDE3"/>
</g>
<g filter="url(#filter9_f_3795_13124)">
<path d="M1535.19 727.922C1403.19 1160.99 942.036 1422.78 678.325 1338.52C414.613 1254.26 198.498 936.897 330.499 503.831C395.912 289.226 374.693 -3.50058 583.731 -216.511C796.525 -433.349 1138.21 -259.415 1271.24 -216.911C1534.95 -132.654 1667.19 294.857 1535.19 727.922Z" fill="#AADDE3"/>
</g>
<g filter="url(#filter10_f_3795_13124)">
<path d="M1378.55 862.842C1242.14 1310.38 769.267 1582.09 499.543 1495.91C229.818 1409.73 9.5072 1082.73 145.918 635.195C213.516 413.42 192.655 111.256 407.284 -109.316C625.769 -333.85 975.05 -155.324 1111.11 -111.852C1380.84 -25.6733 1514.96 415.309 1378.55 862.842Z" fill="#AADDE3"/>
</g>
<g filter="url(#filter11_f_3795_13124)">
<path d="M1524.04 539.941C1404.68 931.533 946.49 1155.09 676.765 1068.91C407.041 982.73 177.82 684.956 297.179 293.364C356.328 99.3113 356.397 -159.229 560.987 -346.865C769.253 -537.872 1120.86 -366.969 1256.92 -323.497C1526.64 -237.318 1643.4 148.349 1524.04 539.941Z" fill="#AADDE3"/>
</g>
</g>
<mask id="mask4_3795_13124" style="mask-type:alpha" maskUnits="userSpaceOnUse" x="218" y="-555" width="2786" height="2141">
<path d="M3003.14 -32.6228C2837.21 722.868 2655.79 1547.4 2650.06 1585.56L218.867 1063.62L571.94 -554.562L3003.14 -32.6228Z" fill="url(#paint3_linear_3795_13124)"/>
</mask>
<g mask="url(#mask4_3795_13124)">
<path d="M1624.02 1096.11C1379.6 1002.47 1216.43 744.859 1258.46 552.208C1300.5 359.557 1474.47 178.325 1720.44 230.064C1842.34 255.703 2044.85 78.6935 2168.74 205.091C2294.85 333.759 2203.47 682.546 2182.27 779.729C2140.23 972.38 1907.16 1204.59 1624.02 1096.11Z" fill="#3DABB8"/>
<g filter="url(#filter13_f_3795_13124)">
<path d="M1568.34 1033.34C1303.49 977.626 1110.72 677.476 1151.82 489.12C1192.91 300.763 1375.73 126.249 1640.59 181.958C1771.83 209.564 1946.88 171.2 2082.35 297.796C2220.25 426.667 2212.44 833.504 2191.71 928.52C2150.61 1116.88 1833.2 1089.04 1568.34 1033.34Z" fill="#3DABB8"/>
</g>
<g filter="url(#filter14_f_3795_13124)">
<path d="M1462.75 932.49C1189.04 874.92 1008.81 571.487 1050.84 378.836C1092.88 186.185 1281.33 7.99957 1555.04 65.5698C1690.67 94.0986 1836.32 397.326 1976.53 527.156C2119.26 659.319 2024.63 914.226 2003.42 1011.41C1961.39 1204.06 1736.45 990.061 1462.75 932.49Z" fill="#3DABB8"/>
</g>
<g filter="url(#filter15_f_3795_13124)">
<path d="M1661.93 1006.43C1422.44 956.053 1271.65 658.814 1313.69 466.163C1355.72 273.512 1526.3 91.5669 1765.79 141.941C1884.47 166.904 2039.75 145.967 2159.82 271.561C2282.04 399.411 2192.08 655.298 2170.87 752.481C2128.84 945.132 1901.42 1056.8 1661.93 1006.43Z" fill="#3DABB8"/>
</g>
</g>
</g>
</g>
</g>
<defs>
<filter id="filter0_f_3795_13124" x="-1539.78" y="-1035.37" width="3887.71" height="3132.15" filterUnits="userSpaceOnUse" color-interpolation-filters="sRGB">
<feFlood flood-opacity="0" result="BackgroundImageFix"/>
<feBlend mode="normal" in="SourceGraphic" in2="BackgroundImageFix" result="shape"/>
<feGaussianBlur stdDeviation="404.275" result="effect1_foregroundBlur_3795_13124"/>
</filter>
<filter id="filter1_f_3795_13124" x="619.577" y="-129.118" width="1390.99" height="1611.16" filterUnits="userSpaceOnUse" color-interpolation-filters="sRGB">
<feFlood flood-opacity="0" result="BackgroundImageFix"/>
<feBlend mode="normal" in="SourceGraphic" in2="BackgroundImageFix" result="shape"/>
<feGaussianBlur stdDeviation="12.9227" result="effect1_foregroundBlur_3795_13124"/>
</filter>
<filter id="filter2_f_3795_13124" x="559.252" y="-237.425" width="1797.26" height="1980.46" filterUnits="userSpaceOnUse" color-interpolation-filters="sRGB">
<feFlood flood-opacity="0" result="BackgroundImageFix"/>
<feBlend mode="normal" in="SourceGraphic" in2="BackgroundImageFix" result="shape"/>
<feGaussianBlur stdDeviation="45.2295" result="effect1_foregroundBlur_3795_13124"/>
</filter>
<filter id="filter3_f_3795_13124" x="562.159" y="-378.719" width="2404.31" height="2548.39" filterUnits="userSpaceOnUse" color-interpolation-filters="sRGB">
<feFlood flood-opacity="0" result="BackgroundImageFix"/>
<feBlend mode="normal" in="SourceGraphic" in2="BackgroundImageFix" result="shape"/>
<feGaussianBlur stdDeviation="64.6136" result="effect1_foregroundBlur_3795_13124"/>
</filter>
<filter id="filter4_f_3795_13124" x="358.061" y="-784.343" width="2995.46" height="2972.4" filterUnits="userSpaceOnUse" color-interpolation-filters="sRGB">
<feFlood flood-opacity="0" result="BackgroundImageFix"/>
<feBlend mode="normal" in="SourceGraphic" in2="BackgroundImageFix" result="shape"/>
<feGaussianBlur stdDeviation="174.457" result="effect1_foregroundBlur_3795_13124"/>
</filter>
<filter id="filter5_f_3795_13124" x="-165.356" y="-1464.15" width="4348.64" height="3799.61" filterUnits="userSpaceOnUse" color-interpolation-filters="sRGB">
<feFlood flood-opacity="0" result="BackgroundImageFix"/>
<feBlend mode="normal" in="SourceGraphic" in2="BackgroundImageFix" result="shape"/>
<feGaussianBlur stdDeviation="432.911" result="effect1_foregroundBlur_3795_13124"/>
</filter>
<filter id="filter6_f_3795_13124" x="828.005" y="-187.87" width="947.392" height="1192.46" filterUnits="userSpaceOnUse" color-interpolation-filters="sRGB">
<feFlood flood-opacity="0" result="BackgroundImageFix"/>
<feBlend mode="normal" in="SourceGraphic" in2="BackgroundImageFix" result="shape"/>
<feGaussianBlur stdDeviation="10.1248" result="effect1_foregroundBlur_3795_13124"/>
</filter>
<filter id="filter7_f_3795_13124" x="577.435" y="-351.159" width="1246.21" height="1452.74" filterUnits="userSpaceOnUse" color-interpolation-filters="sRGB">
<feFlood flood-opacity="0" result="BackgroundImageFix"/>
<feBlend mode="normal" in="SourceGraphic" in2="BackgroundImageFix" result="shape"/>
<feGaussianBlur stdDeviation="35.437" result="effect1_foregroundBlur_3795_13124"/>
</filter>
<filter id="filter8_f_3795_13124" x="314.802" y="-548.444" width="1530.58" height="1847.39" filterUnits="userSpaceOnUse" color-interpolation-filters="sRGB">
<feFlood flood-opacity="0" result="BackgroundImageFix"/>
<feBlend mode="normal" in="SourceGraphic" in2="BackgroundImageFix" result="shape"/>
<feGaussianBlur stdDeviation="50.6242" result="effect1_foregroundBlur_3795_13124"/>
</filter>
<filter id="filter9_f_3795_13124" x="17.238" y="-596.536" width="1843.07" height="2224.14" filterUnits="userSpaceOnUse" color-interpolation-filters="sRGB">
<feFlood flood-opacity="0" result="BackgroundImageFix"/>
<feBlend mode="normal" in="SourceGraphic" in2="BackgroundImageFix" result="shape"/>
<feGaussianBlur stdDeviation="136.685" result="effect1_foregroundBlur_3795_13124"/>
</filter>
<filter id="filter10_f_3795_13124" x="-574.037" y="-898.634" width="2684.93" height="3088.81" filterUnits="userSpaceOnUse" color-interpolation-filters="sRGB">
<feFlood flood-opacity="0" result="BackgroundImageFix"/>
<feBlend mode="normal" in="SourceGraphic" in2="BackgroundImageFix" result="shape"/>
<feGaussianBlur stdDeviation="339.182" result="effect1_foregroundBlur_3795_13124"/>
</filter>
<filter id="filter11_f_3795_13124" x="-49.0978" y="-749.293" width="1933.7" height="2150.46" filterUnits="userSpaceOnUse" color-interpolation-filters="sRGB">
<feFlood flood-opacity="0" result="BackgroundImageFix"/>
<feBlend mode="normal" in="SourceGraphic" in2="BackgroundImageFix" result="shape"/>
<feGaussianBlur stdDeviation="156.935" result="effect1_foregroundBlur_3795_13124"/>
</filter>
<filter id="filter13_f_3795_13124" x="959.213" y="-15.6439" width="1431.16" height="1277.55" filterUnits="userSpaceOnUse" color-interpolation-filters="sRGB">
<feFlood flood-opacity="0" result="BackgroundImageFix"/>
<feBlend mode="normal" in="SourceGraphic" in2="BackgroundImageFix" result="shape"/>
<feGaussianBlur stdDeviation="93.5356" result="effect1_foregroundBlur_3795_13124"/>
</filter>
<filter id="filter14_f_3795_13124" x="580.554" y="-409.63" width="1937.47" height="1964.05" filterUnits="userSpaceOnUse" color-interpolation-filters="sRGB">
<feFlood flood-opacity="0" result="BackgroundImageFix"/>
<feBlend mode="normal" in="SourceGraphic" in2="BackgroundImageFix" result="shape"/>
<feGaussianBlur stdDeviation="232.107" result="effect1_foregroundBlur_3795_13124"/>
</filter>
<filter id="filter15_f_3795_13124" x="1091.89" y="-81.3435" width="1345.56" height="1314.62" filterUnits="userSpaceOnUse" color-interpolation-filters="sRGB">
<feFlood flood-opacity="0" result="BackgroundImageFix"/>
<feBlend mode="normal" in="SourceGraphic" in2="BackgroundImageFix" result="shape"/>
<feGaussianBlur stdDeviation="107.393" result="effect1_foregroundBlur_3795_13124"/>
</filter>
<linearGradient id="paint0_linear_3795_13124" x1="951.424" y1="46.2392" x2="487.185" y2="1240.54" gradientUnits="userSpaceOnUse">
<stop stop-color="#C4C4C4"/>
<stop offset="0.943414" stop-color="#C4C4C4" stop-opacity="0"/>
</linearGradient>
<linearGradient id="paint1_linear_3795_13124" x1="1081.54" y1="494.715" x2="2344.07" y2="1307.2" gradientUnits="userSpaceOnUse">
<stop stop-color="#C4C4C4"/>
<stop offset="1" stop-color="#C4C4C4" stop-opacity="0"/>
</linearGradient>
<linearGradient id="paint2_linear_3795_13124" x1="1809.11" y1="484.6" x2="678.435" y2="179.406" gradientUnits="userSpaceOnUse">
<stop stop-color="#C4C4C4"/>
<stop offset="1" stop-color="#C4C4C4" stop-opacity="0"/>
</linearGradient>
<linearGradient id="paint3_linear_3795_13124" x1="1769.73" y1="926.635" x2="2081.77" y2="-46.6572" gradientUnits="userSpaceOnUse">
<stop stop-color="#C4C4C4"/>
<stop offset="1" stop-color="#C4C4C4" stop-opacity="0"/>
</linearGradient>
<clipPath id="clip0_3795_13124">
<rect width="1920" height="64" fill="white"/>
</clipPath>
<clipPath id="clip1_3795_13124">
<rect width="2826" height="1766.25" fill="white" transform="translate(-900 -427)"/>
</clipPath>
</defs>
</svg>
